<svg width="8293" height="3001" viewBox="0 0 8293 3001" fill="none" xmlns="http://www.w3.org/2000/svg">
<path d="M5016.66 1467.09H4757.93V2229.81H5016.66V1467.09Z" fill="black"/>
<path d="M4083.37 1592.1C4083.37 1579.37 4084.13 880.114 4084.3 753.943H3825.62C3825.62 881.218 3825.74 1592.39 3825.74 1595.76C3826.67 1764.7 3892.98 1923.53 4012.41 2042.96C4025.37 2056.21 4039.26 2068.88 4053.9 2080.85C4171.88 2179.71 4315.31 2229.75 4480.3 2229.75H4629.26V1971.89C4603.86 1971.95 4466.18 1972.06 4463.28 1972.06C4253.82 1972 4083.37 1801.61 4083.37 1592.1Z" fill="black"/>
<path d="M6796.59 1098.57C6708.14 1006.23 6596.09 968.799 6474.28 968.799C6348.69 968.799 6236.81 1009.25 6150.57 1098.57C6086.87 1164.53 6049.68 1248.69 6049.68 1248.69C6049.68 1248.69 6012.48 1164.53 5948.79 1098.57C5862.49 1009.25 5750.67 968.799 5625.08 968.799C5503.21 968.799 5391.22 1006.23 5302.77 1098.57C5207.17 1198.36 5159.86 1341.96 5159.86 1504.86C5159.86 1785.86 5159.57 2140.48 5159.51 2227.08H5416.56C5417.2 2128.51 5419.99 1685.2 5419.99 1504.86C5419.99 1281.29 5542.09 1201.61 5662.16 1201.61C5689.01 1201.61 5715.63 1206.03 5741.14 1214.75C5792.86 1229.63 5849.24 1280.48 5874.05 1321.16C5897.88 1360.33 5913.74 1405.25 5913.74 1497.19V2227.08H6185.84V1497.19C6185.84 1405.19 6201.71 1360.27 6225.54 1321.16C6250.3 1280.48 6306.67 1229.63 6358.39 1214.75C6383.96 1206.03 6410.52 1201.61 6437.37 1201.61C6557.38 1201.61 6679.54 1281.29 6679.54 1504.86C6679.54 1685.14 6682.33 2128.45 6682.97 2227.08H6940.02C6939.96 2140.54 6939.67 1785.86 6939.67 1504.86C6939.5 1341.91 6892.19 1198.36 6796.59 1098.57Z" fill="black"/>
<path d="M8292.1 1587.85C8292.1 1418.33 8228.75 1284.2 8118.5 1164.77C8006.98 1044 7838.85 968.799 7665.37 968.799C7481.43 968.799 7322.6 1039.93 7195.79 1173.19C7081.65 1293.2 7036.78 1435.71 7036.78 1611.86C7036.78 1788.36 7106.76 1955.03 7232.11 2067.43C7363.8 2185.52 7500.44 2246.37 7698.03 2246.37C7866.8 2246.37 8042.72 2181.11 8160.58 2095.21L7993.26 1927.89C7910.97 1985.25 7803.05 2021.29 7704.25 2021.29C7561.87 2021.29 7400.77 1930.86 7334.92 1810.15L8289.07 1641.96C8290.41 1626.56 8292.1 1604.13 8292.1 1587.85ZM7307.37 1569.26C7310.16 1380.84 7415.76 1204.29 7667.11 1204.29C7889.41 1204.29 7993.44 1351.61 8017.5 1469.36L7307.37 1594.42V1569.26Z" fill="black"/>
<path d="M4887.29 1313.66C4731.95 1313.66 4693.13 1224.16 4693.13 1140.71C4693.13 1057.25 4739.27 967.753 4887.29 967.753C5035.32 967.753 5081.46 1057.25 5081.46 1140.71C5081.46 1224.16 5042.64 1313.66 4887.29 1313.66Z" fill="black"/>
<path d="M1500.16 170.165C2233.53 170.165 2830.21 766.787 2830.21 1500.22C2830.21 2233.64 2233.58 2830.21 1500.16 2830.21C766.787 2830.21 170.107 2233.58 170.107 1500.16C170.107 766.729 766.787 170.165 1500.16 170.165ZM1500.16 0C671.65 0 0 671.65 0 1500.16C0 2328.66 671.65 3000.31 1500.16 3000.31C2328.66 3000.31 3000.37 2328.66 3000.37 1500.16C3000.37 671.65 2328.72 0 1500.16 0Z" fill="black"/>
<path d="M1500.21 1694.21C1607.39 1694.21 1694.26 1607.33 1694.26 1500.16C1694.26 1392.99 1607.39 1306.11 1500.21 1306.11C1393.04 1306.11 1306.16 1392.99 1306.16 1500.16C1306.16 1607.33 1393.04 1694.21 1500.21 1694.21Z" fill="black"/>
<path d="M1828.8 1212.54L2294.43 943.751C2386.26 890.749 2403.69 765.275 2329.59 689.434C2183.55 540.075 1997.52 430.002 1788.76 376.535C1685.61 350.092 1585.01 427.329 1585.01 533.856V1071.78C1585.01 1196.91 1720.48 1275.07 1828.8 1212.54Z" fill="black"/>
<path d="M1415.36 1071.72V533.798C1415.36 427.271 1314.77 350.092 1211.61 376.477C1002.86 429.944 816.825 540.017 670.778 689.376C596.622 765.217 614.115 890.632 705.939 943.693L1171.57 1212.48C1279.9 1275.07 1415.36 1196.85 1415.36 1071.72Z" fill="black"/>
<path d="M1913.65 1640.97L2379.52 1909.93C2471.34 1962.94 2588.73 1915.4 2617.27 1813.29C2645.16 1713.68 2660.04 1608.66 2660.04 1500.16C2660.04 1391.65 2645.11 1286.64 2617.27 1187.03C2588.73 1084.97 2471.28 1037.38 2379.52 1090.38L1913.65 1359.34C1805.27 1421.99 1805.27 1578.38 1913.65 1640.97Z" fill="black"/>
<path d="M1171.57 1787.83L705.939 2056.62C614.115 2109.62 596.68 2235.1 670.778 2310.94C816.825 2460.3 1002.85 2570.37 1211.61 2623.84C1314.77 2650.28 1415.36 2573.04 1415.36 2466.51V1928.59C1415.36 1803.47 1279.9 1725.3 1171.57 1787.83Z" fill="black"/>
<path d="M1086.72 1359.4L620.857 1090.44C529.033 1037.43 411.638 1084.97 383.103 1187.08C355.207 1286.7 340.329 1391.71 340.329 1500.21C340.329 1608.72 355.265 1713.73 383.103 1813.35C411.638 1915.4 529.091 1962.99 620.857 1909.99L1086.72 1641.03C1195.1 1578.38 1195.1 1421.99 1086.72 1359.4Z" fill="black"/>
<path d="M1585.01 1928.65V2466.57C1585.01 2573.1 1685.61 2650.28 1788.76 2623.89C1997.52 2570.43 2183.55 2460.35 2329.59 2311C2403.75 2235.15 2386.26 2109.74 2294.43 2056.68L1828.8 1787.89C1720.48 1725.3 1585.01 1803.47 1585.01 1928.65Z" fill="black"/>
</svg>
